<svg xmlns="http://www.w3.org/2000/svg" width="48" height="48" viewBox="0 0 48 48" fill="none">
  <!-- PitchShow 桃子吉祥物 · 浅色背景版（Method C），来源 pitchshow.ai/__preview__/pitchshow-logo-v4 -->
  <defs>
    <radialGradient id="pb-light" cx="40%" cy="28%" r="64%">
      <stop offset="0%" stop-color="#FFCDB0"/>
      <stop offset="55%" stop-color="#FFAB91"/>
      <stop offset="100%" stop-color="#FF8B70"/>
    </radialGradient>
  </defs>
  <path d="M24,14 C21.5,5.5 4,9.5 4,21.5 C4,34 12.5,45 24,45 C35.5,45.5 44,34 44,21 C44,9 26.5,5 24,14 Z" fill="url(#pb-light)" stroke="rgba(0,0,0,0.07)" stroke-width="1.2"/>
  <ellipse cx="27.5" cy="9.5" rx="4.8" ry="7.2" fill="#4CAF50" transform="rotate(20 27.5 9.5)"/>
  <path d="M24,14 C24.5,11.5 26,10 27.5,8.5" stroke="#3a7020" stroke-width="1.3" fill="none" stroke-linecap="round"/>
  <ellipse cx="10" cy="33.5" rx="5.5" ry="3.2" fill="rgba(255,120,90,0.22)"/>
  <ellipse cx="38" cy="33.5" rx="5.5" ry="3.2" fill="rgba(255,120,90,0.22)"/>
  <circle cx="16" cy="27" r="2.2" fill="#1a0810"/>
  <circle cx="32" cy="27" r="2.2" fill="#1a0810"/>
</svg>
